<svg width="806" height="201" viewBox="0 0 806 201" fill="none" xmlns="http://www.w3.org/2000/svg">
<path d="M3.00018 166.208L5.88693 161.208H0.113432L3.00018 166.208ZM402.833 0.281448V102.909H403.833V0.281448H402.833ZM383.333 122.409H23.0002V123.409H383.333V122.409ZM2.50018 142.909V161.708H3.50018V142.909H2.50018ZM23.0002 122.409C11.6783 122.409 2.50018 131.587 2.50018 142.909H3.50018C3.50018 132.14 12.2306 123.409 23.0002 123.409V122.409ZM402.833 102.909C402.833 113.679 394.103 122.409 383.333 122.409V123.409C394.655 123.409 403.833 114.231 403.833 102.909H402.833Z" fill="url(#paint0_linear)"/>
<path d="M272.02 165.704L274.906 160.704H269.133L272.02 165.704ZM402.577 4.02696V102.909H403.577V4.02696H402.577ZM383.077 122.409H292.02V123.409H383.077V122.409ZM271.52 142.909V161.204H272.52V142.909H271.52ZM292.02 122.409C280.698 122.409 271.52 131.587 271.52 142.909H272.52C272.52 132.14 281.25 123.409 292.02 123.409V122.409ZM402.577 102.909C402.577 113.679 393.846 122.409 383.077 122.409V123.409C394.398 123.409 403.577 114.231 403.577 102.909H402.577Z" fill="url(#paint1_linear)"/>
<path d="M802.971 166.208L800.084 161.208H805.858L802.971 166.208ZM403.28 0.265823V102.909H402.28V0.265823H403.28ZM422.78 122.409H782.971V123.409H422.78V122.409ZM803.471 142.909V161.708H802.471V142.909H803.471ZM782.971 122.409C794.293 122.409 803.471 131.587 803.471 142.909H802.471C802.471 132.14 793.741 123.409 782.971 123.409V122.409ZM403.28 102.909C403.28 113.679 412.011 122.409 422.78 122.409V123.409C411.458 123.409 402.28 114.231 402.28 102.909H403.28Z" fill="url(#paint2_linear)"/>
<path d="M534.094 165.704L531.207 160.704H536.98L534.094 165.704ZM403.537 1.00005V102.909H402.537V1.00005H403.537ZM423.037 122.409H514.094V123.409H423.037V122.409ZM534.594 142.909V161.204H533.594V142.909H534.594ZM514.094 122.409C525.416 122.409 534.594 131.587 534.594 142.909H533.594C533.594 132.14 524.863 123.409 514.094 123.409V122.409ZM403.537 102.909C403.537 113.679 412.267 122.409 423.037 122.409V123.409C411.715 123.409 402.537 114.231 402.537 102.909H403.537Z" fill="url(#paint3_linear)"/>
<defs>
<linearGradient id="paint0_linear" x1="203.167" y1="166.208" x2="203.167" y2="0.281448" gradientUnits="userSpaceOnUse">
<stop stop-color="#FFE7D7"/>
<stop offset="0.239583" stop-color="#FFD8BC"/>
<stop offset="0.526042" stop-color="#DFA178"/>
<stop offset="1" stop-color="#C98661"/>
</linearGradient>
<linearGradient id="paint1_linear" x1="337.548" y1="165.704" x2="337.548" y2="4.02696" gradientUnits="userSpaceOnUse">
<stop stop-color="#FFE7D7"/>
<stop offset="0.239583" stop-color="#FFD8BC"/>
<stop offset="0.526042" stop-color="#DFA178"/>
<stop offset="1" stop-color="#C98661"/>
</linearGradient>
<linearGradient id="paint2_linear" x1="602.876" y1="166.208" x2="602.876" y2="0.265823" gradientUnits="userSpaceOnUse">
<stop stop-color="#FFE7D7"/>
<stop offset="0.239583" stop-color="#FFD8BC"/>
<stop offset="0.526042" stop-color="#DFA178"/>
<stop offset="1" stop-color="#C98661"/>
</linearGradient>
<linearGradient id="paint3_linear" x1="468.565" y1="165.704" x2="468.565" y2="1.00005" gradientUnits="userSpaceOnUse">
<stop stop-color="#FFE7D7"/>
<stop offset="0.239583" stop-color="#FFD8BC"/>
<stop offset="0.526042" stop-color="#DFA178"/>
<stop offset="1" stop-color="#C98661"/>
</linearGradient>
</defs>
</svg>
